<?xml version="1.0" encoding="UTF-8" standalone="no"?>
<svg width="240px" height="381px" viewBox="0 0 240 381" version="1.1" xmlns="http://www.w3.org/2000/svg" xmlns:xlink="http://www.w3.org/1999/xlink" xmlns:sketch="http://www.bohemiancoding.com/sketch/ns">
    <!-- Generator: Sketch 3.1.1 (8761) - http://www.bohemiancoding.com/sketch -->
    <title>Slice 2</title>
    <desc>Created with Sketch.</desc>
    <defs></defs>
    <g id="Page-1" stroke="none" stroke-width="1" fill="none" fill-rule="evenodd" sketch:type="MSPage">
        <path d="M104,380.744469 C46.6264773,378.897111 2.06855544,367.25293 0.0700071264,353.000006 L0.0700063351,353 L0,353 L0,264 L0.0494120127,264.00003 C0.173451615,259.516294 0.532192376,254.840777 1.1041489,250 L1.1041489,250 L104,250 L104,380.744469 Z M136,380.744469 C193.373523,378.897111 237.931445,367.25293 239.929994,353 L240,353 L240,270.895617 C240.000848,270.647602 240.000846,270.398798 240,270.149208 L240,264 L239.819201,264 L239.819201,264 C239.578922,259.537746 239.103714,254.861255 238.415888,250 L136,250 L136,380.744469 Z M104,-0.106803435 C77.5229198,46.6049387 26.1375102,142.915634 7.21875966,218.000002 L7.21876158,218 L104,218.000001 L104,-0.106803435 Z M136,0.0508297709 C161.730318,47.0499762 211.901878,143.84235 231.68996,218.000002 L136,218.000001 L136,0.0508297709 Z" id="Triangle-1" fill="#D8D8D8" sketch:type="MSShapeGroup"></path>
    </g>
</svg>